<?xml version="1.0" encoding="utf-8"?>
<!-- Generator: Adobe Illustrator 23.0.1, SVG Export Plug-In . SVG Version: 6.00 Build 0)  -->
<svg version="1.1" id="Layer_1" xmlns="http://www.w3.org/2000/svg" xmlns:xlink="http://www.w3.org/1999/xlink" x="0px" y="0px"
	 viewBox="0 0 60 18" style="enable-background:new 0 0 60 18;" xml:space="preserve">
<style type="text/css">
	.st0{fill:#FFFFFF;}
</style>
<g>
	<g>
		<path class="st0" d="M2.4,0.1h55.3c1.3,0,2.4,1.1,2.4,2.4v12.9c0,1.3-1.1,2.4-2.4,2.4H2.4c-1.3,0-2.4-1.1-2.4-2.4V2.5
			C-0.1,1.2,1,0.1,2.4,0.1z"/>
	</g>
	<g>
		<g>
			<path d="M13.3,6.9C11.9,8.5,12,9.6,13.7,11c-0.4,0.7-0.8,1.4-1.3,2c-0.3,0.5-0.9,0.6-1.4,0.4c-0.8-0.3-1.5-0.3-2.3,0
				c-0.5,0.2-1,0.1-1.4-0.3c-1.3-1.4-1.9-3-1.6-4.9c0.3-1.9,2.1-2.6,3.4-2c0.4,0.2,1,0.1,1.5-0.1C11.7,5.8,12.6,6,13.3,6.9z"/>
		</g>
		<g>
			<path d="M9.6,5.8c0-1.2,0.7-2,1.9-2.2C11.6,4.8,10.9,5.7,9.6,5.8z"/>
		</g>
	</g>
	<g>
		<g>
			<path d="M22.5,11.6L22,10.4h-2.2l-0.4,1.2h-1l2-5.2h1l2.1,5.2H22.5z M20.1,9.7h1.6l-0.8-2.2L20.1,9.7z"/>
		</g>
		<g>
			<path d="M24.2,13.1V7.9H25v0.7l0.1-0.2c0.1-0.2,0.3-0.3,0.5-0.5c0.2-0.1,0.4-0.2,0.7-0.2c0.4,0,0.8,0.2,1.1,0.5
				c0.3,0.3,0.5,0.8,0.5,1.4c0,0.6-0.2,1.1-0.5,1.5c-0.3,0.3-0.7,0.5-1.1,0.5c-0.2,0-0.4,0-0.6-0.1c-0.2-0.1-0.3-0.2-0.5-0.4
				l-0.1-0.1v2L24.2,13.1L24.2,13.1z M26,8.5c-0.3,0-0.5,0.1-0.7,0.3c-0.2,0.2-0.3,0.5-0.3,0.9c0,0.4,0.1,0.8,0.3,1
				c0.2,0.2,0.4,0.3,0.7,0.3c0.3,0,0.5-0.1,0.6-0.3c0.2-0.2,0.2-0.5,0.2-1c0-0.4-0.1-0.7-0.3-0.9C26.5,8.6,26.3,8.5,26,8.5z"/>
		</g>
		<g>
			<path d="M28.8,13.1V7.9h0.8v0.7l0.1-0.2C29.8,8.3,30,8.1,30.2,8c0.2-0.1,0.4-0.2,0.7-0.2c0.4,0,0.8,0.2,1.1,0.5
				c0.3,0.3,0.5,0.8,0.5,1.4c0,0.6-0.2,1.1-0.5,1.5c-0.3,0.3-0.7,0.5-1.1,0.5c-0.2,0-0.4,0-0.6-0.1c-0.2-0.1-0.3-0.2-0.5-0.4
				l-0.1-0.1v2L28.8,13.1L28.8,13.1z M30.6,8.5c-0.3,0-0.5,0.1-0.7,0.3c-0.2,0.2-0.3,0.5-0.3,0.9c0,0.4,0.1,0.8,0.3,1
				c0.2,0.2,0.4,0.3,0.7,0.3c0.3,0,0.5-0.1,0.6-0.3c0.2-0.2,0.2-0.5,0.2-1c0-0.4-0.1-0.7-0.3-0.9C31,8.6,30.8,8.5,30.6,8.5z"/>
		</g>
		<g>
			<path d="M37.3,11.7c-0.7,0-1.2-0.1-1.5-0.5c-0.3-0.3-0.5-0.7-0.6-1.3l0.9-0.1c0.1,0.3,0.2,0.6,0.4,0.8c0.2,0.2,0.5,0.3,0.8,0.3
				c0.4,0,0.6-0.1,0.8-0.2c0.2-0.2,0.3-0.3,0.3-0.6c0-0.1,0-0.3-0.1-0.4c-0.1-0.1-0.2-0.2-0.4-0.2c-0.1,0-0.4-0.1-0.9-0.2
				c-0.6-0.1-1-0.3-1.2-0.5c-0.3-0.3-0.5-0.6-0.5-1c0-0.3,0.1-0.5,0.2-0.7c0.1-0.2,0.4-0.4,0.6-0.5c0.3-0.1,0.6-0.2,1-0.2
				c0.6,0,1.1,0.1,1.5,0.4c0.3,0.3,0.5,0.6,0.5,1.1l-1,0c-0.1-0.3-0.2-0.5-0.3-0.6c-0.2-0.1-0.4-0.2-0.7-0.2c-0.3,0-0.6,0.1-0.8,0.2
				c-0.1,0.1-0.2,0.2-0.2,0.4c0,0.1,0.1,0.3,0.2,0.4c0.1,0.1,0.5,0.2,1,0.4c0.5,0.1,0.9,0.2,1.1,0.4C38.8,9,39,9.1,39.1,9.3
				c0.1,0.2,0.2,0.5,0.2,0.8c0,0.3-0.1,0.6-0.2,0.8c-0.2,0.3-0.4,0.4-0.7,0.6C38.1,11.7,37.7,11.7,37.3,11.7z"/>
		</g>
		<g>
			<path d="M41.3,11.7c-0.2,0-0.3,0-0.5-0.1c-0.1-0.1-0.2-0.1-0.3-0.2c-0.1-0.1-0.1-0.2-0.1-0.4c0-0.1,0-0.4,0-0.7V8.6h-0.5V7.9h0.5
				V7.1l0.9-0.5v1.3H42v0.7h-0.7v1.6c0,0.4,0,0.5,0,0.6c0,0.1,0.1,0.1,0.1,0.2c0.1,0,0.1,0.1,0.2,0.1c0.1,0,0.2,0,0.4-0.1l0.1,0.7
				C41.9,11.7,41.6,11.7,41.3,11.7z"/>
		</g>
		<g>
			<path d="M44.5,11.7c-0.3,0-0.7-0.1-1-0.2c-0.3-0.1-0.5-0.4-0.7-0.7c-0.2-0.3-0.2-0.7-0.2-1.1c0-0.3,0.1-0.6,0.2-1
				c0.2-0.3,0.4-0.5,0.7-0.7s0.6-0.2,1-0.2c0.6,0,1,0.2,1.4,0.5c0.4,0.4,0.5,0.8,0.5,1.4c0,0.6-0.2,1-0.5,1.4S45.1,11.7,44.5,11.7z
				 M44.5,8.5c-0.3,0-0.5,0.1-0.7,0.3c-0.2,0.2-0.3,0.5-0.3,0.9c0,0.4,0.1,0.7,0.3,0.9c0.2,0.2,0.4,0.3,0.7,0.3
				c0.3,0,0.5-0.1,0.7-0.3c0.2-0.2,0.3-0.5,0.3-0.9c0-0.4-0.1-0.7-0.3-0.9C45,8.6,44.8,8.5,44.5,8.5z"/>
		</g>
		<g>
			<path d="M47.3,11.6V7.9h0.8v0.7l0.1-0.2c0.2-0.2,0.3-0.4,0.4-0.5c0.1-0.1,0.3-0.1,0.4-0.1c0.2,0,0.4,0.1,0.6,0.2l-0.3,0.8
				c-0.2-0.1-0.3-0.1-0.4-0.1c-0.2,0-0.3,0-0.4,0.1c-0.1,0.1-0.2,0.2-0.3,0.5c-0.1,0.2-0.1,0.6-0.1,1.3v1.1L47.3,11.6L47.3,11.6z"/>
		</g>
		<g>
			<path d="M51.8,11.7c-0.6,0-1.1-0.2-1.4-0.6c-0.2-0.3-0.4-0.8-0.4-1.3c0-0.6,0.2-1.1,0.5-1.5c0.3-0.3,0.7-0.5,1.2-0.5
				c0.6,0,1,0.2,1.3,0.5c0.3,0.4,0.5,0.9,0.5,1.6h-2.6l0,0.1c0,0.3,0.1,0.6,0.3,0.7c0.2,0.2,0.4,0.3,0.6,0.3c0.2,0,0.3-0.1,0.4-0.1
				c0.1-0.1,0.2-0.2,0.3-0.4l0.9,0.1c-0.1,0.3-0.3,0.6-0.6,0.8C52.5,11.6,52.2,11.7,51.8,11.7z M51.7,8.5c-0.2,0-0.4,0.1-0.6,0.3
				c-0.2,0.2-0.2,0.4-0.2,0.7v0.1h1.6l0-0.1c0-0.3-0.1-0.5-0.2-0.7C52.1,8.6,52,8.5,51.7,8.5z"/>
		</g>
	</g>
</g>
</svg>
