<?xml version="1.0" encoding="utf-8"?>
<!-- Generator: Adobe Illustrator 23.0.1, SVG Export Plug-In . SVG Version: 6.00 Build 0)  -->
<svg version="1.1" id="Layer_1" xmlns="http://www.w3.org/2000/svg" xmlns:xlink="http://www.w3.org/1999/xlink" x="0px" y="0px"
	 viewBox="0 0 60 18" style="enable-background:new 0 0 60 18;" xml:space="preserve">
<style type="text/css">
	.st0{fill:#FFFFFF;}
</style>
<g>
	<g>
		<path class="st0" d="M2.4,0.1h55.2c1.3,0,2.4,1.1,2.4,2.4v12.9c0,1.3-1.1,2.4-2.4,2.4H2.4c-1.3,0-2.4-1.1-2.4-2.4V2.5
			C-0.1,1.2,1,0.1,2.4,0.1z"/>
	</g>
	<g>
		<g>
			<path d="M23.2,8.3h-2.6V9h1.8c-0.1,1.1-1,1.5-1.8,1.5c-1.1,0-2-0.9-2-2.1c0-1.2,0.9-2.1,2-2.1C21.4,6.4,22,7,22,7l0.5-0.6
				c0,0-0.7-0.8-2-0.8c-1.6,0-2.9,1.4-2.9,2.8c0,1.4,1.2,2.8,2.9,2.8c1.5,0,2.6-1,2.6-2.6C23.2,8.4,23.2,8.3,23.2,8.3L23.2,8.3z"/>
		</g>
		<g>
			<path d="M25.4,8.4c0.5,0,1,0.4,1,1.1c0,0.7-0.5,1.1-1,1.1c-0.6,0-1-0.5-1-1.1C24.3,8.9,24.8,8.4,25.4,8.4L25.4,8.4L25.4,8.4z
				 M25.4,7.7c-1.1,0-1.8,0.8-1.8,1.8c0,1,0.7,1.8,1.8,1.8c1,0,1.8-0.8,1.8-1.8C27.2,8.3,26.2,7.7,25.4,7.7L25.4,7.7z"/>
		</g>
		<g>
			<path d="M29.4,8.4c0.5,0,1,0.4,1,1.1c0,0.7-0.5,1.1-1,1.1c-0.6,0-1-0.5-1-1.1C28.4,8.9,28.8,8.4,29.4,8.4L29.4,8.4L29.4,8.4z
				 M29.4,7.7c-1.1,0-1.8,0.8-1.8,1.8c0,1,0.7,1.8,1.8,1.8c1,0,1.8-0.8,1.8-1.8C31.2,8.3,30.3,7.7,29.4,7.7L29.4,7.7z"/>
		</g>
		<g>
			<path d="M33.4,8.4c0.5,0,1,0.4,1,1.1c0,0.7-0.5,1.1-1,1.1c-0.5,0-1-0.4-1-1.1C32.4,8.8,32.9,8.4,33.4,8.4L33.4,8.4L33.4,8.4z
				 M33.3,7.7c-1,0-1.7,0.9-1.7,1.8c0,1.1,0.9,1.8,1.7,1.8c0.5,0,0.8-0.2,1-0.4v0.4c0,0.6-0.4,1-1,1c-0.6,0-0.8-0.4-0.9-0.6
				l-0.7,0.3c0.2,0.5,0.7,1.1,1.6,1.1c1,0,1.7-0.6,1.7-1.9V7.8h-0.8v0.3C34.1,7.9,33.8,7.7,33.3,7.7L33.3,7.7z"/>
		</g>
		<g>
			<path d="M38.7,8.4c0.3,0,0.6,0.2,0.7,0.4l-1.6,0.7C37.6,8.9,38.1,8.4,38.7,8.4L38.7,8.4L38.7,8.4z M38.6,7.7
				c-0.9,0-1.7,0.7-1.7,1.8c0,1.1,0.9,1.8,1.8,1.8c0.8,0,1.2-0.4,1.5-0.8l-0.6-0.4c-0.2,0.3-0.4,0.5-0.9,0.5c-0.5,0-0.7-0.3-0.9-0.6
				l2.4-1l-0.1-0.3C39.9,8.2,39.4,7.7,38.6,7.7L38.6,7.7z"/>
		</g>
		<g>
			<rect x="35.7" y="5.9" width="0.8" height="5.4"/>
		</g>
		<g>
			<rect x="46.4" y="5.9" width="0.8" height="5.4"/>
		</g>
		<g>
			<rect x="42.2" y="5.9" width="0.8" height="5.4"/>
		</g>
		<g>
			<path d="M42.2,5.9h1.9c0.9,0,1.7,0.8,1.7,1.7l0,0c0,0.9-0.8,1.7-1.7,1.7h-1.9V5.9L42.2,5.9z M43,6.7v1.8h1.1
				c0.5,0,0.9-0.4,0.9-0.9c0-0.5-0.4-0.9-0.9-0.9H43z"/>
		</g>
		<g>
			<polygon points="53.1,13 55.5,7.7 54.6,7.7 52.3,13 			"/>
		</g>
		<g>
			<polygon points="53.4,11.8 51.6,7.7 52.5,7.7 53.7,10.5 53.4,10.5 			"/>
		</g>
		<g>
			<path d="M50.5,11.2h0.8V9.3c0.1-2-2.4-2.5-3.3-1l0.6,0.4c0.5-0.8,1.8-0.6,1.9,0.2c-0.4-0.1-0.8-0.2-1.2-0.1
				c-0.6,0.1-1.1,0.5-1.2,1.1c0,0.3,0,0.8,0.3,1c0.4,0.4,1,0.5,1.5,0.3c0.3-0.1,0.5-0.3,0.7-0.5L50.5,11.2L50.5,11.2z M50.5,9.7
				c-0.1,0.4-0.4,0.8-0.9,0.9c-0.9,0.3-1.2-1.3,0.2-1C50.1,9.5,50.3,9.6,50.5,9.7z"/>
		</g>
	</g>
	<g>
		<g>
			<path d="M5.6,4.3C7.2,5.9,8.7,7.4,10.3,9c-1.5,1.5-3.1,3.1-4.6,4.6c-0.1-0.1-0.2-0.3-0.2-0.5c0-2.5,0-5.1,0-7.6
				c0-0.2,0-0.4,0-0.6C5.5,4.6,5.5,4.5,5.6,4.3z"/>
		</g>
		<g>
			<path d="M10.5,9.3c0.4,0.4,0.8,0.9,1.3,1.3c-1.9,1.1-3.8,2.1-5.7,3.2c0,0,0-0.1-0.1-0.1C7.5,12.2,9,10.7,10.5,9.3z"/>
		</g>
		<g>
			<path d="M11.8,7.4c-0.4,0.4-0.9,0.9-1.3,1.3c-1.5-1.5-3-3-4.5-4.5C8,5.3,9.9,6.4,11.8,7.4z"/>
		</g>
		<g>
			<path d="M12.2,7.6c0.5,0.3,1.1,0.6,1.6,0.9c0.4,0.2,0.4,0.6,0,0.9c-0.6,0.3-1.1,0.6-1.7,1c-0.5-0.5-0.9-0.9-1.3-1.4
				C11.3,8.6,11.7,8.1,12.2,7.6z"/>
		</g>
	</g>
</g>
</svg>
